<?xml version="1.0" standalone="no"?>
<!DOCTYPE svg PUBLIC "-//W3C//DTD SVG 20010904//EN"
 "http://www.w3.org/TR/2001/REC-SVG-20010904/DTD/svg10.dtd">
<svg version="1.0" xmlns="http://www.w3.org/2000/svg"
 width="236.000000pt" height="314.000000pt" viewBox="0 0 236.000000 314.000000"
 preserveAspectRatio="xMidYMid meet">

<g transform="translate(0.000000,314.000000) scale(0.100000,-0.100000)"
fill="#000000" stroke="none">
<path d="M0 3090 c0 -41 3 -50 18 -50 35 0 92 -21 92 -34 0 -10 -10 -11 -42
-5 -66 13 -70 12 -66 -18 3 -27 50 -61 141 -101 l28 -12 -6 47 c-4 28 -15 55
-26 65 -23 19 -25 38 -4 38 8 0 15 9 15 19 0 11 11 32 24 48 21 24 31 27 85
28 33 0 56 2 51 3 -6 2 -8 8 -4 13 3 5 -59 9 -150 9 l-156 0 0 -50z"/>
<path d="M351 3131 c-11 -7 -11 -10 0 -15 10 -4 10 -8 3 -11 -16 -8 297 -310
321 -310 7 0 31 -17 54 -38 35 -31 45 -36 57 -26 8 7 12 19 9 28 -4 12 -1 11
9 -3 16 -20 36 -14 37 12 0 10 5 5 11 -11 7 -20 15 -26 27 -22 10 3 33 -5 52
-18 35 -23 104 -33 115 -16 3 6 11 5 20 -2 11 -9 14 -8 14 5 0 12 6 15 23 12
12 -3 45 -8 72 -12 28 -4 55 -8 60 -10 72 -17 95 -21 95 -14 0 5 11 3 25 -4
13 -7 38 -11 54 -8 26 3 32 11 45 51 28 87 42 142 45 170 1 9 9 11 29 6 15 -4
33 -8 40 -8 6 0 12 -4 12 -9 0 -4 9 -8 20 -8 11 0 20 -4 20 -10 0 -5 10 -10
23 -10 12 0 31 -7 41 -15 11 -8 29 -12 39 -9 12 4 17 2 13 -4 -6 -10 15 -22
39 -22 18 0 155 129 155 147 0 8 4 12 8 9 5 -3 9 1 9 9 0 10 -5 11 -18 4 -10
-5 -24 -9 -31 -8 -7 0 -4 4 6 8 21 8 45 82 46 139 l0 32 -369 0 c-361 0 -370
0 -376 -20 -7 -21 -13 -63 -14 -92 -1 -23 -43 -33 -73 -18 -53 28 -108 81
-105 103 l2 22 -325 2 c-179 2 -331 -1 -339 -6z m1529 -181 c0 -12 -40 -34
-48 -26 -3 4 3 13 14 21 22 17 34 19 34 5z m19 -29 c-13 -11 -26 -17 -29 -14
-6 6 30 33 43 33 5 0 -1 -9 -14 -19z m-84 -21 c-3 -5 -11 -10 -16 -10 -6 0 -7
5 -4 10 3 6 11 10 16 10 6 0 7 -4 4 -10z m-35 -34 c0 -2 -7 -7 -16 -10 -8 -3
-12 -2 -9 4 6 10 25 14 25 6z"/>
<path d="M2160 3125 c0 -8 -4 -15 -9 -15 -5 0 -11 -10 -15 -22 -5 -19 -8 -21
-16 -8 -8 13 -10 12 -10 -2 0 -10 5 -18 11 -18 7 0 5 -9 -4 -24 -17 -25 -12
-36 24 -49 17 -6 17 -7 -7 -112 -4 -16 -15 -42 -26 -57 -11 -16 -17 -32 -14
-37 10 -15 -27 -71 -46 -71 -21 0 -23 -11 -6 -28 9 -9 7 -12 -8 -12 -28 0 -35
-9 -24 -30 8 -15 4 -19 -27 -25 -30 -5 -34 -9 -21 -16 23 -13 11 -39 -17 -39
-32 0 -40 -17 -15 -30 26 -14 27 -40 0 -33 -11 3 -17 9 -14 14 3 5 1 9 -4 9
-13 0 -24 -29 -16 -42 3 -5 12 -7 18 -5 7 3 19 1 26 -3 11 -7 11 -11 -1 -26
-11 -13 -11 -18 -1 -21 6 -3 12 -11 12 -19 0 -8 7 -14 15 -14 18 0 18 -1 6
-33 -8 -19 -5 -29 9 -45 16 -17 17 -22 5 -38 -12 -17 -11 -22 13 -46 14 -16
31 -28 38 -28 7 0 14 -3 16 -7 2 -5 72 -42 156 -85 l152 -76 0 153 c0 127 -3
155 -16 166 -8 7 -26 33 -39 59 -13 25 -44 69 -70 98 -26 29 -43 56 -39 63 3
6 0 15 -7 20 -14 8 18 82 124 283 46 88 47 92 47 178 l0 88 -100 0 c-82 0
-100 -3 -100 -15z"/>
<path d="M2015 3040 c3 -5 8 -10 11 -10 2 0 4 5 4 10 0 6 -5 10 -11 10 -5 0
-7 -4 -4 -10z"/>
<path d="M1484 2416 c-3 -9 -12 -16 -20 -16 -7 0 -17 -7 -22 -16 -5 -9 -13
-14 -17 -12 -5 1 -13 -12 -17 -31 -11 -41 13 -101 40 -101 20 0 52 -48 52 -79
0 -28 69 -104 87 -97 8 3 34 1 59 -5 52 -13 145 1 206 32 48 25 59 24 93 -5
20 -17 24 -25 14 -29 -11 -5 -10 -9 3 -20 10 -8 15 -17 11 -21 -4 -4 -1 -11 7
-16 13 -8 12 -10 -3 -10 -10 0 -16 -4 -13 -9 12 -19 -7 -41 -39 -47 -19 -3
-36 -13 -39 -21 -3 -8 -10 -11 -16 -8 -5 3 -10 -1 -10 -10 0 -8 -7 -18 -16
-22 -13 -5 -13 -7 -2 -15 8 -5 -7 -7 -39 -5 -28 2 -49 -1 -47 -5 8 -13 -21 -9
-34 4 -9 9 -12 9 -12 -1 0 -7 -8 -11 -17 -10 -40 4 -52 -1 -46 -17 5 -14 3
-15 -15 -5 -28 15 -30 14 -27 -14 2 -14 0 -23 -4 -20 -5 2 -21 9 -37 15 -23 9
-25 13 -14 20 11 7 11 10 2 10 -9 0 -11 10 -6 35 5 30 2 39 -21 61 -15 14 -39
48 -52 75 -25 49 -50 67 -40 28 3 -12 0 -28 -6 -36 -32 -39 -80 -82 -97 -88
-11 -4 -20 -11 -20 -16 0 -5 -4 -9 -10 -9 -5 0 -10 7 -10 15 0 25 -17 17 -28
-12 -6 -16 -13 -49 -17 -75 -3 -28 -12 -49 -21 -52 -8 -3 -12 -11 -8 -17 9
-14 -16 -59 -33 -59 -7 0 -13 -7 -13 -15 0 -8 -7 -15 -15 -15 -20 0 -40 -51
-24 -60 7 -5 8 -9 1 -11 -6 -2 -12 -11 -14 -19 -2 -8 -11 -23 -20 -34 -10 -11
-18 -26 -18 -33 0 -7 -6 -10 -15 -7 -9 4 -15 0 -15 -10 0 -9 -4 -16 -10 -16
-5 0 -10 -5 -10 -10 0 -11 -10 -25 -41 -58 -9 -9 -19 -25 -22 -34 -4 -10 -13
-19 -22 -19 -8 -1 -21 -2 -27 -3 -8 -1 -15 -24 -19 -61 l-6 -60 -1 55 c-2 48
-5 56 -22 57 -17 2 -20 -4 -20 -37 0 -41 -15 -62 -23 -33 -3 10 -4 5 -3 -12 3
-38 15 -67 35 -82 9 -6 13 -15 9 -19 -4 -4 2 -16 15 -28 12 -12 28 -34 35 -49
8 -19 18 -27 27 -23 10 4 14 -1 12 -16 -1 -16 4 -22 18 -23 27 -2 85 -27 85
-38 0 -4 4 -6 10 -2 11 7 85 -27 120 -56 14 -11 53 -37 86 -58 49 -31 61 -44
60 -62 -1 -19 -7 -24 -26 -22 -14 1 -19 -1 -12 -3 6 -3 10 -10 6 -15 -3 -5 -2
-9 3 -10 49 -4 75 -8 80 -13 4 -3 -1 -6 -10 -6 -10 0 -17 -8 -17 -20 0 -11 5
-20 12 -20 6 0 9 -3 5 -6 -3 -4 4 -15 16 -25 19 -16 19 -18 5 -19 -10 0 -25
11 -34 25 -21 32 -33 32 -26 0 2 -14 8 -25 13 -25 5 0 9 -4 9 -10 0 -5 -8 -7
-17 -4 -16 5 -16 4 1 -10 14 -12 22 -12 37 -3 15 9 23 7 43 -12 13 -13 22 -29
19 -37 -3 -8 1 -14 11 -14 9 0 16 -4 16 -10 0 -5 -7 -10 -15 -10 -9 0 -18 -7
-21 -15 -4 -8 -10 -12 -15 -9 -13 8 -10 -7 6 -36 10 -17 14 -20 15 -9 0 22 30
48 30 27 0 -8 -5 -19 -11 -25 -8 -8 -8 -13 1 -18 8 -5 6 -11 -7 -20 -17 -12
-16 -14 7 -35 24 -21 24 -21 3 -17 -16 4 -21 0 -20 -14 1 -11 5 -19 9 -19 4 0
5 -6 2 -13 -5 -15 32 -67 48 -67 5 0 20 -8 32 -18 19 -14 21 -20 10 -30 -7 -6
-21 -12 -31 -12 -13 0 -9 -6 13 -19 18 -11 35 -24 38 -29 8 -13 -20 -36 -34
-27 -5 3 -10 1 -10 -4 0 -6 7 -11 15 -11 14 0 41 -38 37 -52 -1 -5 2 -8 7 -8
6 0 8 -9 6 -20 -4 -20 2 -20 386 -20 l389 0 -2 787 -3 787 -60 35 c-33 19
-102 59 -153 89 l-93 55 7 41 c3 22 10 48 14 56 23 45 -26 190 -106 317 -19
29 -40 68 -48 85 -11 28 -27 39 -107 72 -82 34 -99 38 -146 32 -51 -6 -53 -5
-53 18 0 32 -21 47 -75 54 -35 3 -46 1 -51 -12z m-70 -665 c10 -11 15 -24 12
-30 -3 -5 0 -12 6 -14 7 -3 3 -6 -10 -6 -26 -1 -20 -21 6 -21 9 -1 31 -7 47
-15 29 -14 29 -14 -20 -8 -27 3 -58 12 -67 21 -16 14 -18 13 -18 -2 0 -9 -4
-15 -9 -12 -5 4 -12 0 -14 -6 -3 -7 -3 2 0 20 3 20 1 32 -5 32 -7 0 -9 7 -5
18 18 45 49 54 77 23z m112 -3 c10 -17 -4 -20 -28 -7 -12 7 -30 12 -38 11 -12
-2 -12 -1 -2 6 15 10 60 4 68 -10z m-16 -66 c-14 -5 -60 18 -60 30 0 4 16 0
36 -9 19 -10 30 -19 24 -21z m-90 -85 c0 -5 6 -7 14 -4 8 3 21 -2 30 -12 13
-15 14 -18 2 -18 -8 0 -15 3 -14 6 2 19 -4 24 -13 11 -8 -11 -12 -12 -16 -2
-2 6 -10 9 -15 6 -6 -4 -8 -2 -4 4 3 6 -3 13 -14 17 -11 3 -20 10 -20 15 0 5
11 4 25 -2 14 -6 25 -15 25 -21z m-344 -204 c3 -16 10 -38 16 -50 6 -12 8 -29
5 -37 -3 -8 -2 -18 2 -21 5 -3 7 -13 4 -24 -2 -10 0 -35 5 -55 6 -20 7 -36 3
-36 -4 0 -7 -9 -7 -20 0 -22 12 -27 19 -7 3 6 6 2 6 -11 1 -12 -5 -25 -13 -28
-7 -3 -12 -16 -10 -32 l3 -27 -24 29 c-27 34 -75 204 -75 267 0 48 7 63 30 72
26 10 29 8 36 -20z m408 -68 c23 -46 24 -51 9 -62 -13 -10 -14 -18 -6 -35 8
-18 4 -39 -15 -94 -27 -76 -38 -87 -90 -99 -28 -6 -32 -4 -32 13 0 11 -6 25
-14 31 -22 18 -42 174 -22 168 5 -1 13 8 17 21 5 13 13 20 19 17 5 -3 10 -1
10 5 0 16 26 41 34 33 6 -6 39 33 42 50 1 4 2 10 3 14 2 12 19 -11 45 -62z
m-612 -55 c-2 -22 -6 -40 -8 -40 -2 0 -4 18 -4 40 0 22 3 40 8 40 4 0 6 -18 4
-40z m168 -130 c0 -5 -5 -10 -11 -10 -5 0 -7 5 -4 10 3 6 8 10 11 10 2 0 4 -4
4 -10z m340 -375 c7 -9 10 -18 7 -22 -8 -7 -37 15 -37 28 0 14 16 11 30 -6z
m200 -367 c0 -6 -6 -5 -15 2 -8 7 -15 14 -15 16 0 2 7 1 15 -2 8 -4 15 -11 15
-16z m-56 -56 c2 -4 -4 -9 -15 -9 -11 -1 -17 2 -14 8 7 11 22 12 29 1z m25
-52 c7 0 11 -6 8 -14 -3 -7 0 -19 6 -25 8 -8 7 -11 -4 -11 -16 0 -60 29 -45
30 6 0 1 7 -10 16 -18 15 -18 15 6 10 14 -3 31 -6 39 -6z m26 -100 c-3 -5 -1
-10 6 -10 7 0 10 -2 7 -5 -8 -9 -38 6 -32 16 3 5 10 9 15 9 6 0 7 -4 4 -10z"/>
<path d="M785 2350 c-11 -4 -37 -5 -57 -2 -20 2 -48 2 -62 -2 -42 -10 -93 -62
-100 -101 -7 -38 7 -75 29 -75 7 0 20 -7 29 -15 33 -34 109 -57 180 -56 57 0
76 5 109 27 39 26 39 26 35 79 -8 96 -93 172 -163 145z m-85 -54 c0 -16 -26
-46 -41 -46 -15 0 -10 19 11 40 24 24 30 25 30 6z"/>
<path d="M78 2203 l-78 -4 0 -180 c0 -140 3 -180 13 -176 6 2 11 9 10 15 -2 6
4 9 12 6 11 -4 13 -2 10 9 -4 10 2 17 20 21 14 4 23 11 20 16 -3 6 1 10 9 10
9 0 22 15 30 34 8 18 19 36 24 40 6 3 16 23 22 44 17 53 58 140 70 147 21 13
-2 25 -43 23 -23 -1 -77 -4 -119 -5z"/>
<path d="M1150 1915 c-7 -9 -29 -15 -51 -15 -22 0 -39 -3 -39 -7 1 -12 134
-73 141 -65 19 21 18 63 -1 82 -24 24 -33 25 -50 5z"/>
<path d="M1305 660 c3 -5 8 -10 11 -10 2 0 4 5 4 10 0 6 -5 10 -11 10 -5 0 -7
-4 -4 -10z"/>
<path d="M1380 591 c0 -8 50 -34 56 -29 1 2 -11 11 -27 20 -16 9 -29 14 -29 9z"/>
<path d="M1420 305 c1 -15 38 -61 44 -54 4 3 -5 19 -19 35 -14 16 -25 25 -25
19z"/>
<path d="M1465 80 c-3 -6 1 -7 9 -4 18 7 21 14 7 14 -6 0 -13 -4 -16 -10z"/>
<path d="M1509 23 c13 -10 33 -19 45 -20 18 -3 19 -2 6 10 -8 8 -28 17 -45 21
l-30 6 24 -17z"/>
</g>
</svg>
